<?xml version="1.0" standalone="no"?>
<!DOCTYPE svg PUBLIC "-//W3C//DTD SVG 20010904//EN"
 "http://www.w3.org/TR/2001/REC-SVG-20010904/DTD/svg10.dtd">
<svg version="1.0" xmlns="http://www.w3.org/2000/svg"
 width="1464.000000pt" height="1044.000000pt" viewBox="0 0 1464.000000 1044.000000"
 preserveAspectRatio="xMidYMid meet">
<metadata>
Created by potrace 1.13, written by Peter Selinger 2001-2015
</metadata>
<g transform="translate(0.000000,1044.000000) scale(0.100000,-0.100000)"
fill="#000000" stroke="none">
<path d="M1423 9827 c-10 -6 -25 -17 -34 -27 -9 -9 -229 -387 -489 -840 -319
-557 -473 -835 -475 -858 -3 -44 -12 -30 497 -770 301 -438 446 -641 470 -657
29 -20 41 -22 72 -15 21 4 39 10 40 12 41 56 44 66 37 100 -11 45 35 -25 -416
633 -215 314 -410 598 -434 633 l-42 63 425 742 c234 408 431 750 438 760 13
17 51 13 798 -87 872 -117 841 -116 880 -48 18 29 19 39 9 73 -22 72 5 67
-901 187 -453 61 -831 110 -840 109 -9 0 -25 -5 -35 -10z"/>
<path d="M12300 9729 c-886 -120 -864 -115 -888 -187 -12 -36 -11 -43 8 -74
39 -68 8 -69 879 48 638 85 787 102 796 92 7 -7 209 -349 449 -761 l437 -747
-422 -603 c-232 -331 -435 -621 -451 -643 -16 -23 -33 -59 -38 -80 -9 -37 -6
-45 36 -102 1 -2 19 -8 40 -12 30 -7 43 -5 70 13 23 15 179 229 496 681 255
362 470 672 479 689 9 16 15 44 13 61 -3 41 -967 1691 -1001 1713 -13 9 -40
17 -61 19 -20 1 -399 -47 -842 -107z"/>
<path d="M3574 9521 c-45 -28 -1882 -3183 -1885 -3239 -5 -83 84 -134 151 -88
22 15 276 444 937 1579 l908 1557 3630 0 3630 0 908 -1557 c661 -1135 915
-1564 937 -1579 67 -46 156 5 151 88 -3 56 -1840 3211 -1885 3239 -30 18 -133
19 -3741 19 -3608 0 -3711 -1 -3741 -19z"/>
<path d="M4644 7426 c-66 -29 -64 -8 -64 -748 0 -734 -1 -721 59 -751 45 -22
641 -132 851 -157 96 -11 245 -29 330 -40 85 -11 385 -33 665 -50 462 -29 548
-31 915 -27 707 7 1517 72 2040 163 318 55 517 95 548 110 63 30 62 13 62 752
0 747 2 719 -68 749 -31 13 -45 13 -121 -2 -700 -131 -1046 -174 -1720 -215
-682 -41 -990 -41 -1661 0 -272 17 -565 39 -650 50 -85 11 -232 29 -326 40
-94 11 -314 47 -490 80 -175 33 -323 60 -329 60 -5 -1 -24 -7 -41 -14z"/>
<path d="M1448 5874 c-39 -29 -316 -501 -322 -549 -3 -21 3 -44 15 -64 10 -17
557 -713 1215 -1546 976 -1236 1203 -1518 1231 -1530 52 -22 604 -22 657 0 77
32 80 139 5 177 -29 15 -70 17 -304 18 l-271 0 -1149 1456 c-633 801 -1155
1464 -1162 1473 -9 14 9 52 112 229 137 234 147 265 106 318 -32 41 -91 49
-133 18z"/>
<path d="M13108 5890 c-24 -3 -44 -15 -59 -34 -41 -53 -31 -84 106 -318 103
-177 121 -215 112 -229 -7 -9 -529 -672 -1162 -1473 l-1149 -1456 -271 0
c-234 -1 -275 -3 -304 -18 -75 -38 -72 -145 5 -177 53 -22 605 -22 657 0 28
12 255 294 1231 1530 658 833 1205 1529 1215 1546 12 20 18 43 15 65 -5 37
-275 509 -308 537 -34 29 -49 33 -88 27z"/>
<path d="M5680 4263 c-29 -15 -44 -36 -88 -123 -29 -58 -243 -492 -477 -964
-466 -941 -454 -914 -397 -969 42 -40 98 -38 139 6 30 31 301 567 736 1455
l197 402 1516 -2 1517 -3 462 -912 c260 -516 474 -926 490 -943 40 -42 99 -42
138 -2 57 59 73 21 -457 1069 -339 671 -492 964 -511 978 -26 20 -44 20 -1628
23 -1510 2 -1604 1 -1637 -15z"/>
<path d="M6742 3485 c-42 -19 -67 -72 -54 -118 11 -35 246 -528 270 -566 31
-47 61 -51 357 -51 296 0 326 4 357 51 24 38 259 531 270 566 13 47 -12 100
-56 118 -52 22 -1094 21 -1144 0z"/>
<path d="M4192 1607 c-47 -15 -75 -71 -60 -120 7 -22 125 -175 308 -400 163
-200 299 -374 302 -385 3 -12 22 -28 43 -36 34 -14 294 -16 2520 -16 2162 0
2487 2 2518 15 28 11 98 95 338 399 167 212 309 400 316 421 18 52 -10 106
-63 123 -69 21 -83 7 -394 -387 l-284 -361 -2421 0 -2422 0 -296 363 c-219
269 -305 367 -331 380 -20 9 -38 17 -39 16 -1 -1 -17 -6 -35 -12z"/>
</g>
</svg>
